<svg xmlns="http://www.w3.org/2000/svg" viewBox="0 0 64 64" role="img" aria-label="SoftwareZawy">
  <defs>
    <linearGradient id="szMarkGradient" x1="8" y1="8" x2="56" y2="56" gradientUnits="userSpaceOnUse">
      <stop stop-color="#31d7ff"/>
      <stop offset="1" stop-color="#76ff91"/>
    </linearGradient>
    <filter id="szMarkGlow" x="-30%" y="-30%" width="160%" height="160%">
      <feGaussianBlur stdDeviation="2.1" result="blur"/>
      <feMerge>
        <feMergeNode in="blur"/>
        <feMergeNode in="SourceGraphic"/>
      </feMerge>
    </filter>
  </defs>
  <rect x="4" y="4" width="56" height="56" rx="16" fill="#071017"/>
  <rect x="5.5" y="5.5" width="53" height="53" rx="14.5" fill="none" stroke="url(#szMarkGradient)" stroke-width="3"/>
  <path d="M21 21 12 32l9 11M43 21l9 11-9 11" fill="none" stroke="url(#szMarkGradient)" stroke-width="4.2" stroke-linecap="round" stroke-linejoin="round" filter="url(#szMarkGlow)"/>
  <path d="M39.5 20.5c-2.4-3-6.6-4.5-11-3.4-5.9 1.5-9.4 6.4-8 11.4 1.3 4.7 5.9 6.2 10.7 7.1 4.1.8 6.4 1.8 6.9 4 .6 2.7-1.7 5-5.4 5.6-3.8.6-7.4-.8-9.9-3.7" fill="none" stroke="url(#szMarkGradient)" stroke-width="5.2" stroke-linecap="round" filter="url(#szMarkGlow)"/>
  <circle cx="42.8" cy="20" r="3.7" fill="#31d7ff"/>
  <circle cx="21.2" cy="44" r="3.7" fill="#76ff91"/>
</svg>
