<svg xmlns="http://www.w3.org/2000/svg" viewBox="0 0 280 64" role="img" aria-label="SoftwareZawy">
  <defs>
    <linearGradient id="wordmarkGradient" x1="6" y1="8" x2="274" y2="56" gradientUnits="userSpaceOnUse">
      <stop stop-color="#31d7ff"/>
      <stop offset="1" stop-color="#76ff91"/>
    </linearGradient>
    <filter id="wordmarkGlow" x="-20%" y="-40%" width="140%" height="180%">
      <feGaussianBlur stdDeviation="1.9" result="blur"/>
      <feMerge>
        <feMergeNode in="blur"/>
        <feMergeNode in="SourceGraphic"/>
      </feMerge>
    </filter>
  </defs>
  <rect x="1" y="1" width="278" height="62" rx="12" fill="#071017"/>
  <rect x="2.5" y="2.5" width="275" height="59" rx="10.5" fill="none" stroke="url(#wordmarkGradient)" stroke-opacity=".5" stroke-width="1.5"/>
  <g transform="translate(12 10)" filter="url(#wordmarkGlow)">
    <rect x="0" y="0" width="44" height="44" rx="11" fill="#071017" stroke="url(#wordmarkGradient)" stroke-width="2.5"/>
    <path d="M12 14 6 22l6 8M32 14l6 8-6 8" fill="none" stroke="url(#wordmarkGradient)" stroke-width="3.2" stroke-linecap="round" stroke-linejoin="round"/>
    <path d="M29.5 12.5c-1.7-2.2-4.9-3.2-8.1-2.4-4.3 1.1-6.9 4.7-5.8 8.3.9 3.4 4.3 4.5 7.8 5.2 3 .6 4.7 1.3 5.1 2.9.4 2-1.3 3.7-4 4.1-2.8.4-5.4-.6-7.2-2.7" fill="none" stroke="url(#wordmarkGradient)" stroke-width="3.8" stroke-linecap="round"/>
  </g>
  <text x="68" y="31" fill="#f6fdff" font-family="Arial, Helvetica, sans-serif" font-size="23" font-weight="900" letter-spacing="0">SOFTWARE<tspan fill="#31d7ff">ZAWY</tspan></text>
  <text x="70" y="48" fill="#b8c9d4" font-family="Arial, Helvetica, sans-serif" font-size="10.5" font-weight="800" letter-spacing="1.3">PROGRAMMING &amp; TECH SOLUTIONS</text>
</svg>
